<?xml version="1.0" encoding="UTF-8"?>
<svg width="154px" height="169px" viewBox="0 0 154 169" version="1.1" xmlns="http://www.w3.org/2000/svg" xmlns:xlink="http://www.w3.org/1999/xlink">
    <defs>
        <polygon id="path-1" points="0.9754 91 68.6514 91 68.6514 0.5342 0.9754 0.5342"></polygon>
    </defs>
    <g  stroke="none" stroke-width="1" fill="none" fill-rule="evenodd">
        <g transform="translate(-588.000000, -551.000000)">
            <g id="Group-3" transform="translate(588.000000, 551.000000)">
                <g id="Page-1-Copy">
                    <polygon id="Fill-1" fill="#FFFFFF" points="76.8542 62.1278 11.3832 79.6648 11.3832 118.5258 76.8542 100.9898 142.4552 118.5258 142.4552 79.6648"></polygon>
                    <path d="M76.8539,99.7817 L141.2879,117.0057 L141.2879,80.5607 L76.8549,63.3357 L12.5499,80.5597 L12.5499,117.0047 L76.8539,99.7817 Z M10.2159,120.0467 L10.2159,78.7687 L76.8539,60.9197 L143.6219,78.7687 L143.6219,120.0457 L76.8549,102.1977 L10.2159,120.0467 Z" id="Fill-2" fill="#C4C4C4"></path>
                    <g id="Group-30" transform="translate(0.000000, 0.443000)">
                        <path d="M76.4847,166.4797 L15.1707,150.0887 C12.7687,149.4607 11.1427,147.3167 11.1427,144.9147 L11.1427,79.0547 L76.4847,96.5917 L76.4847,166.4797 Z" id="Fill-3" fill="#FFFFFF"></path>
                        <g id="Group-7" transform="translate(9.000000, 77.000000)">
                            <mask id="mask-2" fill="white">
                                <use xlink:href="#path-1"></use>
                            </mask>
                            <g id="Clip-6"></g>
                            <path d="M3.3094,3.5762 L3.3094,67.9142 C3.3094,69.8102 4.6074,71.4742 6.4664,71.9602 L66.3174,87.9602 L66.3174,20.4862 L3.3094,3.5762 Z M68.6514,91.0002 L5.8694,74.2162 C2.9904,73.4632 0.9754,70.8712 0.9754,67.9142 L0.9754,0.5342 L68.6514,18.6972 L68.6514,91.0002 Z" id="Fill-5" fill="#C4C4C4" mask="url(#mask-2)"></path>
                        </g>
                        <path d="M60.0752,131.8869 L5.1922,117.1219 C2.1622,116.3649 0.5172,113.2049 1.4042,110.3029 L11.3642,79.1479 L76.7062,96.6839 L66.6172,128.3389 C65.7482,131.0189 62.8652,132.6449 60.0752,131.8869" id="Fill-8" fill="#FFFFFF"></path>
                        <path d="M12.137,80.5633 L2.516,110.6593 C2.177,111.7683 2.31,112.9983 2.887,114.0183 C3.449,115.0133 4.368,115.7133 5.475,115.9903 L60.381,130.7613 C62.524,131.3433 64.821,130.0933 65.507,127.9793 L75.224,97.4943 L12.137,80.5633 Z M61.492,133.2443 C60.924,133.2443 60.346,133.1693 59.772,133.0143 L4.889,118.2483 C3.176,117.8213 1.736,116.7243 0.856,115.1663 C-0.035,113.5923 -0.241,111.6953 0.288,109.9623 L10.592,77.7323 L78.19,95.8743 L67.729,128.6933 C66.829,131.4673 64.269,133.2443 61.492,133.2443 L61.492,133.2443 Z" id="Fill-10" fill="#C4C4C4"></path>
                        <path d="M76.4847,166.4797 L138.4267,150.1997 C140.8287,149.5717 142.4547,147.4277 142.4547,145.0257 L142.4547,79.1847 L76.4847,96.5917 L76.4847,166.4797 Z" id="Fill-12" fill="#FFFFFF"></path>
                        <path d="M77.6519,97.4904 L77.6519,164.9664 L138.1299,149.0714 C139.9899,148.5844 141.2879,146.9204 141.2879,145.0254 L141.2879,80.6994 L77.6519,97.4904 Z M75.3179,167.9934 L75.3179,95.6934 L143.6219,77.6694 L143.6219,145.0254 C143.6219,147.9814 141.6069,150.5734 138.7219,151.3284 L75.3179,167.9934 Z" id="Fill-14" fill="#C4C4C4"></path>
                        <path d="M92.2473,131.6651 L147.9983,117.0301 C150.9003,116.2721 152.6743,113.1121 151.7873,110.2111 L142.4553,79.1841 L76.2263,96.5921 L85.6873,128.0061 C86.5743,130.7781 89.4753,132.4231 92.2473,131.6651" id="Fill-16" fill="#FFFFFF"></path>
                        <path d="M77.6921,97.413 L86.8051,127.67 C87.4941,129.829 89.8011,131.124 91.9401,130.54 L91.9511,130.537 L147.7021,115.901 C148.7811,115.619 149.7251,114.875 150.2921,113.859 C150.8631,112.837 151.0011,111.631 150.6711,110.552 L141.6621,80.599 L77.6921,97.413 Z M90.8511,133.021 C88.0611,133.021 85.4831,131.197 84.5761,128.362 L74.7601,95.771 L143.2481,77.77 L152.9041,109.875 C153.4181,111.554 153.2081,113.423 152.3291,114.997 C151.4541,116.565 149.9831,117.718 148.2931,118.159 L92.5491,132.793 C91.9821,132.947 91.4131,133.021 90.8511,133.021 L90.8511,133.021 Z" id="Fill-18" fill="#C4C4C4"></path>
                        <path d="M44.5435314,20.9131134 L44.5435314,17.1959813 C44.5435314,16.1868501 43.8786482,15.5225883 42.869517,15.5225883 C41.8603859,15.5225883 41.1961241,16.1868501 41.1961241,17.1959813 L41.1961241,20.9131134 L37.4789919,20.9131134 C36.4698608,20.9131134 35.8049776,21.5779966 35.8049776,22.5871277 C35.8049776,23.5962589 36.4698608,24.2605207 37.4789919,24.2605207 L41.1961241,24.2605207 L41.1961241,27.9527974 C41.1961241,28.9625499 41.8603859,29.6268117 42.869517,29.6268117 C43.8786482,29.6268117 44.5435314,28.7898045 44.5435314,27.9527974 L44.5435314,24.2605207 L48.2358081,24.2605207 C49.2449392,24.2605207 49.9098224,23.5962589 49.9098224,22.5871277 C49.9098224,21.5779966 49.2449392,20.9131134 48.2358081,20.9131134 L44.5435314,20.9131134 Z" id="Fill-20" fill="#89BAEF"></path>
                        <path d="M58.7092,75.5786 C57.0852,75.5786 56.0152,74.5086 56.0152,72.8846 L56.0152,61.2386 C56.0152,59.6146 57.0852,58.5446 58.7092,58.5446 C60.3332,58.5446 61.4032,59.6146 61.4032,61.2386 L61.4032,72.8846 C61.4422,74.2316 60.3332,75.5786 58.7092,75.5786" id="Fill-22" fill="#89BAEF"></path>
                        <path d="M76.2976,83.6994 C74.6736,83.6994 73.6036,82.6294 73.6036,81.0054 L73.6036,77.9954 C73.6036,76.3714 74.6736,75.3014 76.2976,75.3014 C77.9216,75.3014 78.9916,76.3714 78.9916,77.9954 L78.9916,80.9664 C79.0306,82.5904 77.6446,83.6994 76.2976,83.6994" id="Fill-24" fill="#89BAEF"></path>
                        <path d="M122.772367,49.5746806 L120.490536,47.2928504 L122.744265,45.0384191 C123.495976,44.2593091 123.495976,43.118394 122.744265,42.3666827 C121.965155,41.615674 120.82424,41.615674 120.072529,42.3666827 L117.8188,44.621114 L115.564369,42.3666827 C114.785259,41.615674 113.644344,41.615674 112.892632,42.3666827 C112.141624,43.1457928 112.141624,44.2867079 112.892632,45.0384191 L115.147064,47.2928504 L112.865233,49.5746806 C112.113522,50.3537907 112.113522,51.4947057 112.865233,52.246417 C113.254437,52.6082219 113.644344,52.8028238 114.20075,52.8028238 C114.785259,52.8028238 115.147064,52.6082219 115.536267,52.246417 L117.8188,49.9645869 L120.10063,52.246417 C120.490536,52.6082219 120.852341,52.8028238 121.43685,52.8028238 C121.993256,52.8028238 122.38246,52.6082219 122.772367,52.246417 C123.524078,51.4673069 123.524078,50.3263918 122.772367,49.5746806" id="Fill-26" fill="#89BAEF"></path>
                        <path d="M85.7405931,9.52998102 C84.142361,9.52998102 82.9512051,8.33882508 82.9512051,6.74059306 C82.9512051,5.14236104 84.142361,3.95120509 85.7405931,3.95120509 C87.3388251,3.95120509 88.529981,5.14236104 88.529981,6.74059306 C88.529981,8.33882508 87.3388251,9.52998102 85.7405931,9.52998102 M85.7405931,0 C81.9632205,0 79,2.96322045 79,6.74059306 C79,10.5179657 81.9632205,13.4819196 85.7405931,13.4819196 C89.5179657,13.4819196 92.5105249,10.5179657 92.4811861,6.74059306 C92.4811861,2.96322045 89.5179657,0 85.7405931,0" id="Fill-28" fill="#89BAEF"></path>
                    </g>
                </g>
            </g>
        </g>
    </g>
</svg>
